<svg width="48" height="48" viewBox="0 0 48 48" fill="none" xmlns="http://www.w3.org/2000/svg">
<rect width="48" height="48" rx="6" fill="#1890FF"/>
<g clip-path="url(#clip0_14_40821)">
<path d="M30.667 33.3333H33.3337V22.6667H25.3337V33.3333H28.0003V25.3333H30.667V33.3333ZM12.0003 33.3333V13.3333C12.0003 12.9797 12.1408 12.6406 12.3908 12.3905C12.6409 12.1405 12.98 12 13.3337 12H32.0003C32.3539 12 32.6931 12.1405 32.9431 12.3905C33.1932 12.6406 33.3337 12.9797 33.3337 13.3333V20H36.0003V33.3333H37.3337V36H10.667V33.3333H12.0003ZM17.3337 22.6667V25.3333H20.0003V22.6667H17.3337ZM17.3337 28V30.6667H20.0003V28H17.3337ZM17.3337 17.3333V20H20.0003V17.3333H17.3337Z" fill="white"/>
</g>
<defs>
<clipPath id="clip0_14_40821">
<rect width="32" height="32" fill="white" transform="translate(8 8)"/>
</clipPath>
</defs>
</svg>
