<svg width="48" height="48" viewBox="0 0 48 48" fill="none" xmlns="http://www.w3.org/2000/svg">
<rect width="48" height="48" rx="6" fill="#FADB14"/>
<g clip-path="url(#clip0_14_40815)">
<path d="M10.667 37.3335C10.667 34.5045 11.7908 31.7914 13.7912 29.791C15.7916 27.7906 18.5047 26.6668 21.3337 26.6668C24.1626 26.6668 26.8757 27.7906 28.8761 29.791C30.8765 31.7914 32.0003 34.5045 32.0003 37.3335H10.667ZM21.3337 25.3335C16.9137 25.3335 13.3337 21.7535 13.3337 17.3335C13.3337 12.9135 16.9137 9.3335 21.3337 9.3335C25.7537 9.3335 29.3337 12.9135 29.3337 17.3335C29.3337 21.7535 25.7537 25.3335 21.3337 25.3335ZM31.151 28.3108C33.1905 28.835 35.0127 29.9893 36.3581 31.6093C37.7035 33.2293 38.5035 35.2324 38.6443 37.3335H34.667C34.667 33.8535 33.3337 30.6855 31.151 28.3108ZM28.4537 25.2762C29.571 24.2768 30.4645 23.0526 31.0757 21.6838C31.6869 20.315 32.002 18.8325 32.0003 17.3335C32.0032 15.5114 31.5371 13.7193 30.647 12.1295C32.1572 12.4329 33.5157 13.25 34.4916 14.4418C35.4675 15.6335 36.0006 17.1265 36.0003 18.6668C36.0007 19.6168 35.798 20.5558 35.4058 21.4211C35.0136 22.2863 34.441 23.0577 33.7264 23.6836C33.0118 24.3094 32.1716 24.7753 31.2622 25.05C30.3529 25.3247 29.3953 25.4018 28.4537 25.2762Z" fill="white"/>
</g>
<defs>
<clipPath id="clip0_14_40815">
<rect width="32" height="32" fill="white" transform="translate(8 8)"/>
</clipPath>
</defs>
</svg>
