<svg width="48" height="48" viewBox="0 0 48 48" fill="none" xmlns="http://www.w3.org/2000/svg">
<rect width="48" height="48" rx="6" fill="#52C41A"/>
<g clip-path="url(#clip0_14_40809)">
<path d="M24.0003 22.6665C25.7684 22.6665 27.4641 23.3689 28.7144 24.6191C29.9646 25.8694 30.667 27.5651 30.667 29.3332V37.3332H17.3337V29.3332C17.3337 27.5651 18.036 25.8694 19.2863 24.6191C20.5365 23.3689 22.2322 22.6665 24.0003 22.6665ZM15.051 26.6745C14.8388 27.3902 14.7135 28.1289 14.6777 28.8745L14.667 29.3332V37.3332H10.667V31.3332C10.6667 30.1833 11.091 29.0738 11.8585 28.2174C12.626 27.3611 13.6826 26.8183 14.8257 26.6932L15.051 26.6745ZM32.9497 26.6745C34.1362 26.7468 35.2505 27.2691 36.0651 28.1348C36.8798 29.0005 37.3335 30.1444 37.3337 31.3332V37.3332H33.3337V29.3332C33.3337 28.4092 33.2003 27.5172 32.9497 26.6745ZM15.3337 18.6665C16.2177 18.6665 17.0656 19.0177 17.6907 19.6428C18.3158 20.2679 18.667 21.1158 18.667 21.9998C18.667 22.8839 18.3158 23.7317 17.6907 24.3569C17.0656 24.982 16.2177 25.3332 15.3337 25.3332C14.4496 25.3332 13.6018 24.982 12.9766 24.3569C12.3515 23.7317 12.0003 22.8839 12.0003 21.9998C12.0003 21.1158 12.3515 20.2679 12.9766 19.6428C13.6018 19.0177 14.4496 18.6665 15.3337 18.6665ZM32.667 18.6665C33.551 18.6665 34.3989 19.0177 35.024 19.6428C35.6491 20.2679 36.0003 21.1158 36.0003 21.9998C36.0003 22.8839 35.6491 23.7317 35.024 24.3569C34.3989 24.982 33.551 25.3332 32.667 25.3332C31.7829 25.3332 30.9351 24.982 30.31 24.3569C29.6848 23.7317 29.3337 22.8839 29.3337 21.9998C29.3337 21.1158 29.6848 20.2679 30.31 19.6428C30.9351 19.0177 31.7829 18.6665 32.667 18.6665ZM24.0003 10.6665C25.4148 10.6665 26.7714 11.2284 27.7716 12.2286C28.7718 13.2288 29.3337 14.5853 29.3337 15.9998C29.3337 17.4143 28.7718 18.7709 27.7716 19.7711C26.7714 20.7713 25.4148 21.3332 24.0003 21.3332C22.5858 21.3332 21.2293 20.7713 20.2291 19.7711C19.2289 18.7709 18.667 17.4143 18.667 15.9998C18.667 14.5853 19.2289 13.2288 20.2291 12.2286C21.2293 11.2284 22.5858 10.6665 24.0003 10.6665Z" fill="white"/>
</g>
<defs>
<clipPath id="clip0_14_40809">
<rect width="32" height="32" fill="white" transform="translate(8 8)"/>
</clipPath>
</defs>
</svg>
